<?xml version='1.0' encoding='utf-8'?>
<!DOCTYPE svg PUBLIC '-//W3C//DTD SVG 1.1//EN' 'http://www.w3.org/Graphics/SVG/1.1/DTD/svg11.dtd'>
<svg width="64" version="1.1" xmlns="http://www.w3.org/2000/svg" height="64" viewBox="0 0 64 64" xmlns:xlink="http://www.w3.org/1999/xlink" enable-background="new 0 0 64 64">
  <g>
    <path fill="#1D1D1B" d="m30.677,63.172c0.356,0.333 0.814,0.491 1.284,0.491 0.295,0 0.596-0.063 0.881-0.187 0.317-0.139 0.589-0.368 0.792-0.648 2.823-2.649 27.244-25.847 29.164-37.906 0.114-0.442 2.677-10.912-2.845-17.817-3.146-3.935-8.163-5.866-14.957-5.665-0.372,0.02-8.249,0.485-13.031,4.759-4.794-4.152-12.521-4.61-12.935-4.631-6.747-0.178-11.759,1.731-14.906,5.665-5.521,6.906-2.956,17.377-2.88,17.645 2.031,12.703 28.314,37.255 29.433,38.294zm-23.421-53.436c2.217-2.772 5.897-4.174 10.9-4.174 0.234,0 0.473,0.003 0.714,0.009 0.082,0.005 8.323,0.509 11.567,4.819 0.668,0.884 1.922,1.064 2.807,0.395 0.301-0.226 0.521-0.521 0.651-0.845 3.402-4.016 11.229-4.494 11.258-4.497 5.395-0.128 9.337,1.257 11.662,4.151 4.28,5.337 2.12,14.259 2.062,14.52-1.425,8.907-18.819,27.06-26.905,34.772-8.146-7.783-25.354-25.79-26.807-34.815-0.023-0.089-2.203-8.967 2.091-14.335z"/>
  </g>
</svg>
