<?xml version='1.0' encoding='utf-8'?>
<!DOCTYPE svg PUBLIC '-//W3C//DTD SVG 1.1//EN' 'http://www.w3.org/Graphics/SVG/1.1/DTD/svg11.dtd'>
<svg width="64" version="1.1" xmlns="http://www.w3.org/2000/svg" height="64" viewBox="0 0 64 64" xmlns:xlink="http://www.w3.org/1999/xlink" enable-background="new 0 0 64 64">
  <g>
    <path fill="#1D1D1B" d="m.057,59.515c0.124,0.582 0.591,1.206 1.119,1.487 0.351,0.187 0.753,0.281 1.192,0.281 2.611,0 13.219-5.48 19.842-9.045 3.482,1.109 5.677,1.162 9.613,1.162h0.228c17.618,0 31.949-11.251 31.949-25.081 0-13.829-14.331-25.08-31.949-25.08-17.614,0-31.948,11.251-31.948,25.08 0,6.521 3.26,12.812 8.997,17.466-0.876,1.31-2.628,3.528-3.886,5.121-4.533,5.739-5.477,7.112-5.157,8.609zm8.349-6.122c4.382-5.547 5.384-6.99 5.183-8.443-0.076-0.539-0.439-1.161-0.881-1.484-5.512-4.014-8.549-9.395-8.549-15.146 0-11.607 12.514-21.052 27.892-21.052 15.38,0 27.892,9.444 27.892,21.052 0,11.609-12.512,21.054-27.892,21.054h-0.228c-3.988,0-5.739-0.048-9.139-1.225-0.543-0.188-1.137-0.141-1.641,0.135-4.91,2.655-10.486,5.492-14.318,7.25 0.581-0.749 1.172-1.497 1.681-2.141z"/>
  </g>
</svg>
